# xmcd
#
# Track frame offsets:
#	150
#	515
#	13365
#	26702
#	41904
#	53984
#	67851
#	86019
#	96772
#	108941
#	123305
#	137497
#	159726
#	172171
#	189400
#	202990
#	222359
#	231657
#	245916
#
# Disc length: 3542 seconds
# Revision: 1
# Processed by: cddbd v1.5.2PL0 Copyright (c) Steve Scherf et al.
# Submitted via: dBpowerAMP V12.0
#
DISCID=120dd413
DTITLE=Jake Hooker - Live May 21, 2000
DYEAR=2000
DGENRE=Country
TTITLE0=Intro
TTITLE1=Undo The Right
TTITLE2=Leavin and Sayin' Goodbye
TTITLE3=Jim, Jack and Rose
TTITLE4=A-11
TTITLE5=3 Days
TTITLE6=Make The World Go Away
TTITLE7=Oh Lonesome Me
TTITLE8=Tearful Earful
TTITLE9=Green Snakes
TTITLE10=The Outsider
TTITLE11=A Thing Called Sadness
TTITLE12=Heart Over Mind
TTITLE13=Home In San Antone
TTITLE14=Case Of Sorrow
TTITLE15=Warmth Of The Wine
TTITLE16=Helpless
TTITLE17=City Lights
TTITLE18=You Wouldn't Know Love
EXTD=
EXTT0=
EXTT1=
EXTT2=
EXTT3=
EXTT4=
EXTT5=
EXTT6=
EXTT7=
EXTT8=
EXTT9=
EXTT10=
EXTT11=
EXTT12=
EXTT13=
EXTT14=
EXTT15=
EXTT16=
EXTT17=
EXTT18=
PLAYORDER=
